<svg xmlns="http://www.w3.org/2000/svg" xmlns:xlink="http://www.w3.org/1999/xlink" class="httpgd" width="686.00" height="671.00" viewBox="0 0 439.04 429.44">
<defs>
  <style type='text/css'><![CDATA[
    .httpgd line, .httpgd polyline, .httpgd polygon, .httpgd path, .httpgd rect, .httpgd circle {
      fill: none;
      stroke: #000000;
      stroke-linecap: round;
      stroke-linejoin: round;
      stroke-miterlimit: 10.00;
    }
  ]]></style>
<clipPath id="c0"><rect x="0.00" y="0.00" width="439.04" height="429.44"/></clipPath>
<clipPath id="c1"><rect x="32.87" y="5.48" width="400.69" height="392.23"/></clipPath>
<clipPath id="c2"><rect x="0.00" y="0.00" width="439.04" height="429.44"/></clipPath>
</defs>
<rect width="100%" height="100%" style="stroke: none;fill: #FFFFFF;"/>
<g clip-path="url(#c0)">
<rect x="0.00" y="0.00" width="439.04" height="429.44" style="stroke-width: 1.07;stroke: #FFFFFF;fill: #FFFFFF;"/>
</g><g clip-path="url(#c1)">
<rect x="32.87" y="5.48" width="400.69" height="392.23" style="stroke-width: 1.07;stroke: none;fill: #FFFFFF;"/>
<polyline points="32.87,314.62 433.56,314.62" style="stroke-width: 0.53;stroke: #EBEBEB;stroke-linecap: butt;"/>
<polyline points="32.87,201.88 433.56,201.88" style="stroke-width: 0.53;stroke: #EBEBEB;stroke-linecap: butt;"/>
<polyline points="32.87,89.14 433.56,89.14" style="stroke-width: 0.53;stroke: #EBEBEB;stroke-linecap: butt;"/>
<polyline points="69.30,397.71 69.30,5.48" style="stroke-width: 0.53;stroke: #EBEBEB;stroke-linecap: butt;"/>
<polyline points="178.58,397.71 178.58,5.48" style="stroke-width: 0.53;stroke: #EBEBEB;stroke-linecap: butt;"/>
<polyline points="287.86,397.71 287.86,5.48" style="stroke-width: 0.53;stroke: #EBEBEB;stroke-linecap: butt;"/>
<polyline points="397.13,397.71 397.13,5.48" style="stroke-width: 0.53;stroke: #EBEBEB;stroke-linecap: butt;"/>
<polyline points="32.87,370.99 433.56,370.99" style="stroke-width: 1.07;stroke: #EBEBEB;stroke-linecap: butt;"/>
<polyline points="32.87,258.25 433.56,258.25" style="stroke-width: 1.07;stroke: #EBEBEB;stroke-linecap: butt;"/>
<polyline points="32.87,145.51 433.56,145.51" style="stroke-width: 1.07;stroke: #EBEBEB;stroke-linecap: butt;"/>
<polyline points="32.87,32.77 433.56,32.77" style="stroke-width: 1.07;stroke: #EBEBEB;stroke-linecap: butt;"/>
<polyline points="123.94,397.71 123.94,5.48" style="stroke-width: 1.07;stroke: #EBEBEB;stroke-linecap: butt;"/>
<polyline points="233.22,397.71 233.22,5.48" style="stroke-width: 1.07;stroke: #EBEBEB;stroke-linecap: butt;"/>
<polyline points="342.49,397.71 342.49,5.48" style="stroke-width: 1.07;stroke: #EBEBEB;stroke-linecap: butt;"/>
<circle cx="160.36" cy="178.40" r="2.28" style="stroke-width: 0.71;stroke: #000000;stroke-opacity: 0.50;fill: #E5E5E5;fill-opacity: 0.50;"/>
<circle cx="51.08" cy="194.88" r="2.47" style="stroke-width: 0.71;stroke: #000000;stroke-opacity: 0.50;fill: #E5E5E5;fill-opacity: 0.50;"/>
<circle cx="87.51" cy="188.61" r="2.67" style="stroke-width: 0.71;stroke: #000000;stroke-opacity: 0.50;fill: #E5E5E5;fill-opacity: 0.50;"/>
<circle cx="51.08" cy="192.29" r="2.53" style="stroke-width: 0.71;stroke: #000000;stroke-opacity: 0.50;fill: #E5E5E5;fill-opacity: 0.50;"/>
<circle cx="87.51" cy="148.11" r="2.53" style="stroke-width: 0.71;stroke: #000000;stroke-opacity: 0.50;fill: #E5E5E5;fill-opacity: 0.50;"/>
<circle cx="51.08" cy="227.31" r="2.11" style="stroke-width: 0.71;stroke: #000000;stroke-opacity: 0.50;fill: #E5E5E5;fill-opacity: 0.50;"/>
<circle cx="87.51" cy="133.59" r="2.26" style="stroke-width: 0.71;stroke: #000000;stroke-opacity: 0.50;fill: #E5E5E5;fill-opacity: 0.50;"/>
<circle cx="51.08" cy="123.08" r="1.42" style="stroke-width: 0.71;stroke: #000000;stroke-opacity: 0.50;fill: #E5E5E5;fill-opacity: 0.50;"/>
<circle cx="87.51" cy="23.31" r="1.60" style="stroke-width: 0.71;stroke: #000000;stroke-opacity: 0.50;fill: #E5E5E5;fill-opacity: 0.50;"/>
<circle cx="51.08" cy="115.31" r="2.07" style="stroke-width: 0.71;stroke: #000000;stroke-opacity: 0.50;fill: #E5E5E5;fill-opacity: 0.50;"/>
<circle cx="87.51" cy="29.24" r="2.31" style="stroke-width: 0.71;stroke: #000000;stroke-opacity: 0.50;fill: #E5E5E5;fill-opacity: 0.50;"/>
<circle cx="51.08" cy="271.47" r="3.31" style="stroke-width: 0.71;stroke: #000000;stroke-opacity: 0.50;fill: #E5E5E5;fill-opacity: 0.50;"/>
<circle cx="87.51" cy="293.10" r="3.39" style="stroke-width: 0.71;stroke: #000000;stroke-opacity: 0.50;fill: #E5E5E5;fill-opacity: 0.50;"/>
<circle cx="51.08" cy="278.49" r="3.22" style="stroke-width: 0.71;stroke: #000000;stroke-opacity: 0.50;fill: #E5E5E5;fill-opacity: 0.50;"/>
<circle cx="87.51" cy="307.33" r="3.18" style="stroke-width: 0.71;stroke: #000000;stroke-opacity: 0.50;fill: #E5E5E5;fill-opacity: 0.50;"/>
<circle cx="51.08" cy="279.67" r="2.13" style="stroke-width: 0.71;stroke: #000000;stroke-opacity: 0.50;fill: #E5E5E5;fill-opacity: 0.50;"/>
<circle cx="87.51" cy="349.39" r="1.91" style="stroke-width: 0.71;stroke: #000000;stroke-opacity: 0.50;fill: #E5E5E5;fill-opacity: 0.50;"/>
<circle cx="87.51" cy="378.84" r="2.17" style="stroke-width: 0.71;stroke: #000000;stroke-opacity: 0.50;fill: #E5E5E5;fill-opacity: 0.50;"/>
<circle cx="87.51" cy="317.74" r="2.21" style="stroke-width: 0.71;stroke: #000000;stroke-opacity: 0.50;fill: #E5E5E5;fill-opacity: 0.50;"/>
<circle cx="160.36" cy="288.31" r="2.26" style="stroke-width: 0.71;stroke: #000000;stroke-opacity: 0.50;fill: #E5E5E5;fill-opacity: 0.50;"/>
<circle cx="51.08" cy="315.84" r="2.26" style="stroke-width: 0.71;stroke: #000000;stroke-opacity: 0.50;fill: #E5E5E5;fill-opacity: 0.50;"/>
<circle cx="160.36" cy="277.64" r="3.77" style="stroke-width: 0.71;stroke: #000000;stroke-opacity: 0.50;fill: #E5E5E5;fill-opacity: 0.50;"/>
<circle cx="87.51" cy="241.04" r="2.23" style="stroke-width: 0.71;stroke: #000000;stroke-opacity: 0.50;fill: #E5E5E5;fill-opacity: 0.50;"/>
<circle cx="87.51" cy="262.36" r="2.23" style="stroke-width: 0.71;stroke: #000000;stroke-opacity: 0.50;fill: #E5E5E5;fill-opacity: 0.50;"/>
<circle cx="87.51" cy="312.12" r="2.32" style="stroke-width: 0.71;stroke: #000000;stroke-opacity: 0.50;fill: #E5E5E5;fill-opacity: 0.50;"/>
<circle cx="87.51" cy="273.98" r="2.20" style="stroke-width: 0.71;stroke: #000000;stroke-opacity: 0.50;fill: #E5E5E5;fill-opacity: 0.50;"/>
<circle cx="87.51" cy="261.31" r="2.17" style="stroke-width: 0.71;stroke: #000000;stroke-opacity: 0.50;fill: #E5E5E5;fill-opacity: 0.50;"/>
<circle cx="87.51" cy="216.98" r="2.22" style="stroke-width: 0.71;stroke: #000000;stroke-opacity: 0.50;fill: #E5E5E5;fill-opacity: 0.50;"/>
<circle cx="87.51" cy="253.02" r="2.53" style="stroke-width: 0.71;stroke: #000000;stroke-opacity: 0.50;fill: #E5E5E5;fill-opacity: 0.50;"/>
<circle cx="87.51" cy="255.99" r="2.28" style="stroke-width: 0.71;stroke: #000000;stroke-opacity: 0.50;fill: #E5E5E5;fill-opacity: 0.50;"/>
<circle cx="87.51" cy="172.53" r="2.01" style="stroke-width: 0.71;stroke: #000000;stroke-opacity: 0.50;fill: #E5E5E5;fill-opacity: 0.50;"/>
<circle cx="87.51" cy="104.81" r="2.29" style="stroke-width: 0.71;stroke: #000000;stroke-opacity: 0.50;fill: #E5E5E5;fill-opacity: 0.50;"/>
<circle cx="87.51" cy="187.51" r="2.12" style="stroke-width: 0.71;stroke: #000000;stroke-opacity: 0.50;fill: #E5E5E5;fill-opacity: 0.50;"/>
<circle cx="87.51" cy="167.85" r="2.05" style="stroke-width: 0.71;stroke: #000000;stroke-opacity: 0.50;fill: #E5E5E5;fill-opacity: 0.50;"/>
<circle cx="87.51" cy="251.69" r="1.97" style="stroke-width: 0.71;stroke: #000000;stroke-opacity: 0.50;fill: #E5E5E5;fill-opacity: 0.50;"/>
<circle cx="87.51" cy="275.46" r="2.27" style="stroke-width: 0.71;stroke: #000000;stroke-opacity: 0.50;fill: #E5E5E5;fill-opacity: 0.50;"/>
<circle cx="87.51" cy="253.55" r="2.18" style="stroke-width: 0.71;stroke: #000000;stroke-opacity: 0.50;fill: #E5E5E5;fill-opacity: 0.50;"/>
<circle cx="87.51" cy="241.42" r="2.01" style="stroke-width: 0.71;stroke: #000000;stroke-opacity: 0.50;fill: #E5E5E5;fill-opacity: 0.50;"/>
<circle cx="87.51" cy="241.14" r="6.68" style="stroke-width: 0.71;stroke: #000000;stroke-opacity: 0.50;fill: #E5E5E5;fill-opacity: 0.50;"/>
<circle cx="87.51" cy="253.15" r="4.57" style="stroke-width: 0.71;stroke: #000000;stroke-opacity: 0.50;fill: #E5E5E5;fill-opacity: 0.50;"/>
<circle cx="87.51" cy="238.31" r="6.76" style="stroke-width: 0.71;stroke: #000000;stroke-opacity: 0.50;fill: #E5E5E5;fill-opacity: 0.50;"/>
<circle cx="87.51" cy="251.43" r="4.99" style="stroke-width: 0.71;stroke: #000000;stroke-opacity: 0.50;fill: #E5E5E5;fill-opacity: 0.50;"/>
<circle cx="87.51" cy="250.78" r="6.46" style="stroke-width: 0.71;stroke: #000000;stroke-opacity: 0.50;fill: #E5E5E5;fill-opacity: 0.50;"/>
<circle cx="87.51" cy="247.77" r="4.77" style="stroke-width: 0.71;stroke: #000000;stroke-opacity: 0.50;fill: #E5E5E5;fill-opacity: 0.50;"/>
<circle cx="87.51" cy="255.46" r="6.46" style="stroke-width: 0.71;stroke: #000000;stroke-opacity: 0.50;fill: #E5E5E5;fill-opacity: 0.50;"/>
<circle cx="87.51" cy="262.52" r="4.79" style="stroke-width: 0.71;stroke: #000000;stroke-opacity: 0.50;fill: #E5E5E5;fill-opacity: 0.50;"/>
<circle cx="87.51" cy="295.25" r="4.56" style="stroke-width: 0.71;stroke: #000000;stroke-opacity: 0.50;fill: #E5E5E5;fill-opacity: 0.50;"/>
<circle cx="87.51" cy="263.82" r="5.80" style="stroke-width: 0.71;stroke: #000000;stroke-opacity: 0.50;fill: #E5E5E5;fill-opacity: 0.50;"/>
<circle cx="87.51" cy="320.66" r="4.13" style="stroke-width: 0.71;stroke: #000000;stroke-opacity: 0.50;fill: #E5E5E5;fill-opacity: 0.50;"/>
<circle cx="87.51" cy="289.54" r="3.74" style="stroke-width: 0.71;stroke: #000000;stroke-opacity: 0.50;fill: #E5E5E5;fill-opacity: 0.50;"/>
<circle cx="87.51" cy="269.51" r="4.82" style="stroke-width: 0.71;stroke: #000000;stroke-opacity: 0.50;fill: #E5E5E5;fill-opacity: 0.50;"/>
<circle cx="87.51" cy="266.44" r="6.14" style="stroke-width: 0.71;stroke: #000000;stroke-opacity: 0.50;fill: #E5E5E5;fill-opacity: 0.50;"/>
<circle cx="87.51" cy="259.32" r="6.37" style="stroke-width: 0.71;stroke: #000000;stroke-opacity: 0.50;fill: #E5E5E5;fill-opacity: 0.50;"/>
<circle cx="87.51" cy="260.10" r="4.55" style="stroke-width: 0.71;stroke: #000000;stroke-opacity: 0.50;fill: #E5E5E5;fill-opacity: 0.50;"/>
<circle cx="87.51" cy="276.73" r="5.00" style="stroke-width: 0.71;stroke: #000000;stroke-opacity: 0.50;fill: #E5E5E5;fill-opacity: 0.50;"/>
<circle cx="87.51" cy="291.28" r="4.59" style="stroke-width: 0.71;stroke: #000000;stroke-opacity: 0.50;fill: #E5E5E5;fill-opacity: 0.50;"/>
<circle cx="87.51" cy="300.77" r="5.72" style="stroke-width: 0.71;stroke: #000000;stroke-opacity: 0.50;fill: #E5E5E5;fill-opacity: 0.50;"/>
<circle cx="87.51" cy="299.42" r="5.41" style="stroke-width: 0.71;stroke: #000000;stroke-opacity: 0.50;fill: #E5E5E5;fill-opacity: 0.50;"/>
<circle cx="87.51" cy="257.66" r="5.70" style="stroke-width: 0.71;stroke: #000000;stroke-opacity: 0.50;fill: #E5E5E5;fill-opacity: 0.50;"/>
<circle cx="87.51" cy="281.77" r="4.44" style="stroke-width: 0.71;stroke: #000000;stroke-opacity: 0.50;fill: #E5E5E5;fill-opacity: 0.50;"/>
<circle cx="87.51" cy="258.51" r="5.69" style="stroke-width: 0.71;stroke: #000000;stroke-opacity: 0.50;fill: #E5E5E5;fill-opacity: 0.50;"/>
<circle cx="87.51" cy="273.45" r="5.42" style="stroke-width: 0.71;stroke: #000000;stroke-opacity: 0.50;fill: #E5E5E5;fill-opacity: 0.50;"/>
<circle cx="51.08" cy="240.48" r="2.99" style="stroke-width: 0.71;stroke: #000000;stroke-opacity: 0.50;fill: #E5E5E5;fill-opacity: 0.50;"/>
<circle cx="51.08" cy="250.72" r="3.34" style="stroke-width: 0.71;stroke: #000000;stroke-opacity: 0.50;fill: #E5E5E5;fill-opacity: 0.50;"/>
<circle cx="51.08" cy="266.94" r="3.41" style="stroke-width: 0.71;stroke: #000000;stroke-opacity: 0.50;fill: #E5E5E5;fill-opacity: 0.50;"/>
<circle cx="51.08" cy="256.05" r="3.10" style="stroke-width: 0.71;stroke: #000000;stroke-opacity: 0.50;fill: #E5E5E5;fill-opacity: 0.50;"/>
<circle cx="51.08" cy="254.35" r="3.16" style="stroke-width: 0.71;stroke: #000000;stroke-opacity: 0.50;fill: #E5E5E5;fill-opacity: 0.50;"/>
<circle cx="51.08" cy="249.61" r="2.85" style="stroke-width: 0.71;stroke: #000000;stroke-opacity: 0.50;fill: #E5E5E5;fill-opacity: 0.50;"/>
<circle cx="51.08" cy="249.87" r="3.66" style="stroke-width: 0.71;stroke: #000000;stroke-opacity: 0.50;fill: #E5E5E5;fill-opacity: 0.50;"/>
<circle cx="51.08" cy="252.91" r="3.42" style="stroke-width: 0.71;stroke: #000000;stroke-opacity: 0.50;fill: #E5E5E5;fill-opacity: 0.50;"/>
<circle cx="51.08" cy="247.95" r="3.13" style="stroke-width: 0.71;stroke: #000000;stroke-opacity: 0.50;fill: #E5E5E5;fill-opacity: 0.50;"/>
<circle cx="51.08" cy="258.49" r="3.18" style="stroke-width: 0.71;stroke: #000000;stroke-opacity: 0.50;fill: #E5E5E5;fill-opacity: 0.50;"/>
<circle cx="87.51" cy="209.23" r="2.53" style="stroke-width: 0.71;stroke: #000000;stroke-opacity: 0.50;fill: #E5E5E5;fill-opacity: 0.50;"/>
<circle cx="87.51" cy="247.02" r="3.30" style="stroke-width: 0.71;stroke: #000000;stroke-opacity: 0.50;fill: #E5E5E5;fill-opacity: 0.50;"/>
<circle cx="87.51" cy="188.07" r="2.34" style="stroke-width: 0.71;stroke: #000000;stroke-opacity: 0.50;fill: #E5E5E5;fill-opacity: 0.50;"/>
<circle cx="87.51" cy="177.72" r="2.76" style="stroke-width: 0.71;stroke: #000000;stroke-opacity: 0.50;fill: #E5E5E5;fill-opacity: 0.50;"/>
<circle cx="87.51" cy="266.61" r="2.70" style="stroke-width: 0.71;stroke: #000000;stroke-opacity: 0.50;fill: #E5E5E5;fill-opacity: 0.50;"/>
<circle cx="87.51" cy="237.25" r="3.04" style="stroke-width: 0.71;stroke: #000000;stroke-opacity: 0.50;fill: #E5E5E5;fill-opacity: 0.50;"/>
<circle cx="87.51" cy="326.18" r="2.82" style="stroke-width: 0.71;stroke: #000000;stroke-opacity: 0.50;fill: #E5E5E5;fill-opacity: 0.50;"/>
<circle cx="87.51" cy="225.03" r="3.17" style="stroke-width: 0.71;stroke: #000000;stroke-opacity: 0.50;fill: #E5E5E5;fill-opacity: 0.50;"/>
<circle cx="87.51" cy="250.00" r="3.11" style="stroke-width: 0.71;stroke: #000000;stroke-opacity: 0.50;fill: #E5E5E5;fill-opacity: 0.50;"/>
<circle cx="87.51" cy="331.46" r="2.89" style="stroke-width: 0.71;stroke: #000000;stroke-opacity: 0.50;fill: #E5E5E5;fill-opacity: 0.50;"/>
<circle cx="87.51" cy="379.88" r="2.65" style="stroke-width: 0.71;stroke: #000000;stroke-opacity: 0.50;fill: #E5E5E5;fill-opacity: 0.50;"/>
<circle cx="87.51" cy="247.38" r="3.11" style="stroke-width: 0.71;stroke: #000000;stroke-opacity: 0.50;fill: #E5E5E5;fill-opacity: 0.50;"/>
<circle cx="87.51" cy="207.69" r="3.11" style="stroke-width: 0.71;stroke: #000000;stroke-opacity: 0.50;fill: #E5E5E5;fill-opacity: 0.50;"/>
<circle cx="87.51" cy="262.59" r="1.77" style="stroke-width: 0.71;stroke: #000000;stroke-opacity: 0.50;fill: #E5E5E5;fill-opacity: 0.50;"/>
<circle cx="87.51" cy="314.24" r="1.75" style="stroke-width: 0.71;stroke: #000000;stroke-opacity: 0.50;fill: #E5E5E5;fill-opacity: 0.50;"/>
<circle cx="87.51" cy="270.96" r="2.84" style="stroke-width: 0.71;stroke: #000000;stroke-opacity: 0.50;fill: #E5E5E5;fill-opacity: 0.50;"/>
<circle cx="87.51" cy="183.93" r="2.65" style="stroke-width: 0.71;stroke: #000000;stroke-opacity: 0.50;fill: #E5E5E5;fill-opacity: 0.50;"/>
<circle cx="87.51" cy="293.00" r="4.04" style="stroke-width: 0.71;stroke: #000000;stroke-opacity: 0.50;fill: #E5E5E5;fill-opacity: 0.50;"/>
<circle cx="196.79" cy="262.28" r="4.39" style="stroke-width: 0.71;stroke: #000000;stroke-opacity: 0.50;fill: #E5E5E5;fill-opacity: 0.50;"/>
<circle cx="87.51" cy="185.34" r="2.57" style="stroke-width: 0.71;stroke: #000000;stroke-opacity: 0.50;fill: #E5E5E5;fill-opacity: 0.50;"/>
<circle cx="87.51" cy="260.05" r="2.48" style="stroke-width: 0.71;stroke: #000000;stroke-opacity: 0.50;fill: #E5E5E5;fill-opacity: 0.50;"/>
<circle cx="87.51" cy="209.82" r="3.21" style="stroke-width: 0.71;stroke: #000000;stroke-opacity: 0.50;fill: #E5E5E5;fill-opacity: 0.50;"/>
<circle cx="87.51" cy="262.88" r="3.21" style="stroke-width: 0.71;stroke: #000000;stroke-opacity: 0.50;fill: #E5E5E5;fill-opacity: 0.50;"/>
<circle cx="87.51" cy="258.25" r="3.65" style="stroke-width: 0.71;stroke: #000000;stroke-opacity: 0.50;fill: #E5E5E5;fill-opacity: 0.50;"/>
<circle cx="87.51" cy="262.37" r="3.65" style="stroke-width: 0.71;stroke: #000000;stroke-opacity: 0.50;fill: #E5E5E5;fill-opacity: 0.50;"/>
<circle cx="87.51" cy="232.36" r="3.51" style="stroke-width: 0.71;stroke: #000000;stroke-opacity: 0.50;fill: #E5E5E5;fill-opacity: 0.50;"/>
<circle cx="87.51" cy="306.49" r="3.24" style="stroke-width: 0.71;stroke: #000000;stroke-opacity: 0.50;fill: #E5E5E5;fill-opacity: 0.50;"/>
<circle cx="160.36" cy="293.04" r="2.30" style="stroke-width: 0.71;stroke: #000000;stroke-opacity: 0.50;fill: #E5E5E5;fill-opacity: 0.50;"/>
<circle cx="160.36" cy="278.27" r="2.44" style="stroke-width: 0.71;stroke: #000000;stroke-opacity: 0.50;fill: #E5E5E5;fill-opacity: 0.50;"/>
<circle cx="160.36" cy="306.01" r="2.13" style="stroke-width: 0.71;stroke: #000000;stroke-opacity: 0.50;fill: #E5E5E5;fill-opacity: 0.50;"/>
<circle cx="160.36" cy="269.44" r="1.96" style="stroke-width: 0.71;stroke: #000000;stroke-opacity: 0.50;fill: #E5E5E5;fill-opacity: 0.50;"/>
<circle cx="160.36" cy="320.36" r="2.20" style="stroke-width: 0.71;stroke: #000000;stroke-opacity: 0.50;fill: #E5E5E5;fill-opacity: 0.50;"/>
<circle cx="160.36" cy="198.93" r="3.02" style="stroke-width: 0.71;stroke: #000000;stroke-opacity: 0.50;fill: #E5E5E5;fill-opacity: 0.50;"/>
<circle cx="160.36" cy="261.38" r="3.00" style="stroke-width: 0.71;stroke: #000000;stroke-opacity: 0.50;fill: #E5E5E5;fill-opacity: 0.50;"/>
<circle cx="51.08" cy="209.98" r="1.98" style="stroke-width: 0.71;stroke: #000000;stroke-opacity: 0.50;fill: #E5E5E5;fill-opacity: 0.50;"/>
<circle cx="51.08" cy="88.49" r="1.92" style="stroke-width: 0.71;stroke: #000000;stroke-opacity: 0.50;fill: #E5E5E5;fill-opacity: 0.50;"/>
<circle cx="51.08" cy="274.34" r="2.23" style="stroke-width: 0.71;stroke: #000000;stroke-opacity: 0.50;fill: #E5E5E5;fill-opacity: 0.50;"/>
<circle cx="51.08" cy="232.44" r="2.28" style="stroke-width: 0.71;stroke: #000000;stroke-opacity: 0.50;fill: #E5E5E5;fill-opacity: 0.50;"/>
<circle cx="51.08" cy="278.79" r="2.99" style="stroke-width: 0.71;stroke: #000000;stroke-opacity: 0.50;fill: #E5E5E5;fill-opacity: 0.50;"/>
<circle cx="51.08" cy="251.54" r="2.66" style="stroke-width: 0.71;stroke: #000000;stroke-opacity: 0.50;fill: #E5E5E5;fill-opacity: 0.50;"/>
<circle cx="51.08" cy="237.70" r="2.99" style="stroke-width: 0.71;stroke: #000000;stroke-opacity: 0.50;fill: #E5E5E5;fill-opacity: 0.50;"/>
<circle cx="51.08" cy="253.30" r="3.33" style="stroke-width: 0.71;stroke: #000000;stroke-opacity: 0.50;fill: #E5E5E5;fill-opacity: 0.50;"/>
<circle cx="51.08" cy="261.24" r="3.16" style="stroke-width: 0.71;stroke: #000000;stroke-opacity: 0.50;fill: #E5E5E5;fill-opacity: 0.50;"/>
<circle cx="51.08" cy="205.44" r="2.32" style="stroke-width: 0.71;stroke: #000000;stroke-opacity: 0.50;fill: #E5E5E5;fill-opacity: 0.50;"/>
<circle cx="51.08" cy="276.94" r="2.85" style="stroke-width: 0.71;stroke: #000000;stroke-opacity: 0.50;fill: #E5E5E5;fill-opacity: 0.50;"/>
<circle cx="160.36" cy="189.46" r="2.59" style="stroke-width: 0.71;stroke: #000000;stroke-opacity: 0.50;fill: #E5E5E5;fill-opacity: 0.50;"/>
<circle cx="160.36" cy="219.17" r="2.96" style="stroke-width: 0.71;stroke: #000000;stroke-opacity: 0.50;fill: #E5E5E5;fill-opacity: 0.50;"/>
<circle cx="87.51" cy="174.36" r="2.12" style="stroke-width: 0.71;stroke: #000000;stroke-opacity: 0.50;fill: #E5E5E5;fill-opacity: 0.50;"/>
<circle cx="87.51" cy="157.38" r="2.12" style="stroke-width: 0.71;stroke: #000000;stroke-opacity: 0.50;fill: #E5E5E5;fill-opacity: 0.50;"/>
<circle cx="87.51" cy="231.32" r="3.22" style="stroke-width: 0.71;stroke: #000000;stroke-opacity: 0.50;fill: #E5E5E5;fill-opacity: 0.50;"/>
<circle cx="87.51" cy="217.79" r="3.28" style="stroke-width: 0.71;stroke: #000000;stroke-opacity: 0.50;fill: #E5E5E5;fill-opacity: 0.50;"/>
<circle cx="87.51" cy="229.44" r="3.23" style="stroke-width: 0.71;stroke: #000000;stroke-opacity: 0.50;fill: #E5E5E5;fill-opacity: 0.50;"/>
<circle cx="87.51" cy="219.61" r="3.27" style="stroke-width: 0.71;stroke: #000000;stroke-opacity: 0.50;fill: #E5E5E5;fill-opacity: 0.50;"/>
<circle cx="87.51" cy="253.58" r="3.08" style="stroke-width: 0.71;stroke: #000000;stroke-opacity: 0.50;fill: #E5E5E5;fill-opacity: 0.50;"/>
<circle cx="87.51" cy="255.46" r="3.06" style="stroke-width: 0.71;stroke: #000000;stroke-opacity: 0.50;fill: #E5E5E5;fill-opacity: 0.50;"/>
<circle cx="87.51" cy="243.11" r="3.15" style="stroke-width: 0.71;stroke: #000000;stroke-opacity: 0.50;fill: #E5E5E5;fill-opacity: 0.50;"/>
<circle cx="87.51" cy="240.86" r="3.17" style="stroke-width: 0.71;stroke: #000000;stroke-opacity: 0.50;fill: #E5E5E5;fill-opacity: 0.50;"/>
<circle cx="87.51" cy="245.12" r="3.55" style="stroke-width: 0.71;stroke: #000000;stroke-opacity: 0.50;fill: #E5E5E5;fill-opacity: 0.50;"/>
<circle cx="87.51" cy="258.07" r="3.43" style="stroke-width: 0.71;stroke: #000000;stroke-opacity: 0.50;fill: #E5E5E5;fill-opacity: 0.50;"/>
<circle cx="87.51" cy="282.00" r="3.17" style="stroke-width: 0.71;stroke: #000000;stroke-opacity: 0.50;fill: #E5E5E5;fill-opacity: 0.50;"/>
<circle cx="87.51" cy="266.06" r="3.35" style="stroke-width: 0.71;stroke: #000000;stroke-opacity: 0.50;fill: #E5E5E5;fill-opacity: 0.50;"/>
<circle cx="87.51" cy="225.70" r="3.62" style="stroke-width: 0.71;stroke: #000000;stroke-opacity: 0.50;fill: #E5E5E5;fill-opacity: 0.50;"/>
<circle cx="87.51" cy="225.70" r="3.62" style="stroke-width: 0.71;stroke: #000000;stroke-opacity: 0.50;fill: #E5E5E5;fill-opacity: 0.50;"/>
<circle cx="87.51" cy="236.70" r="3.56" style="stroke-width: 0.71;stroke: #000000;stroke-opacity: 0.50;fill: #E5E5E5;fill-opacity: 0.50;"/>
<circle cx="87.51" cy="240.62" r="3.53" style="stroke-width: 0.71;stroke: #000000;stroke-opacity: 0.50;fill: #E5E5E5;fill-opacity: 0.50;"/>
<circle cx="87.51" cy="253.81" r="3.42" style="stroke-width: 0.71;stroke: #000000;stroke-opacity: 0.50;fill: #E5E5E5;fill-opacity: 0.50;"/>
<circle cx="87.51" cy="246.00" r="3.49" style="stroke-width: 0.71;stroke: #000000;stroke-opacity: 0.50;fill: #E5E5E5;fill-opacity: 0.50;"/>
<circle cx="87.51" cy="193.82" r="2.94" style="stroke-width: 0.71;stroke: #000000;stroke-opacity: 0.50;fill: #E5E5E5;fill-opacity: 0.50;"/>
<circle cx="123.94" cy="210.17" r="2.63" style="stroke-width: 0.71;stroke: #000000;stroke-opacity: 0.50;fill: #E5E5E5;fill-opacity: 0.50;"/>
<circle cx="87.51" cy="196.04" r="2.66" style="stroke-width: 0.71;stroke: #000000;stroke-opacity: 0.50;fill: #E5E5E5;fill-opacity: 0.50;"/>
<circle cx="87.51" cy="219.73" r="2.61" style="stroke-width: 0.71;stroke: #000000;stroke-opacity: 0.50;fill: #E5E5E5;fill-opacity: 0.50;"/>
<circle cx="51.08" cy="197.78" r="2.65" style="stroke-width: 0.71;stroke: #000000;stroke-opacity: 0.50;fill: #E5E5E5;fill-opacity: 0.50;"/>
<circle cx="51.08" cy="224.59" r="2.60" style="stroke-width: 0.71;stroke: #000000;stroke-opacity: 0.50;fill: #E5E5E5;fill-opacity: 0.50;"/>
<circle cx="87.51" cy="218.16" r="2.96" style="stroke-width: 0.71;stroke: #000000;stroke-opacity: 0.50;fill: #E5E5E5;fill-opacity: 0.50;"/>
<circle cx="87.51" cy="229.53" r="2.92" style="stroke-width: 0.71;stroke: #000000;stroke-opacity: 0.50;fill: #E5E5E5;fill-opacity: 0.50;"/>
<circle cx="87.51" cy="203.47" r="2.99" style="stroke-width: 0.71;stroke: #000000;stroke-opacity: 0.50;fill: #E5E5E5;fill-opacity: 0.50;"/>
<circle cx="87.51" cy="218.16" r="2.96" style="stroke-width: 0.71;stroke: #000000;stroke-opacity: 0.50;fill: #E5E5E5;fill-opacity: 0.50;"/>
<circle cx="87.51" cy="222.21" r="2.94" style="stroke-width: 0.71;stroke: #000000;stroke-opacity: 0.50;fill: #E5E5E5;fill-opacity: 0.50;"/>
<circle cx="87.51" cy="223.19" r="2.94" style="stroke-width: 0.71;stroke: #000000;stroke-opacity: 0.50;fill: #E5E5E5;fill-opacity: 0.50;"/>
<circle cx="87.51" cy="231.21" r="3.51" style="stroke-width: 0.71;stroke: #000000;stroke-opacity: 0.50;fill: #E5E5E5;fill-opacity: 0.50;"/>
<circle cx="87.51" cy="232.03" r="3.50" style="stroke-width: 0.71;stroke: #000000;stroke-opacity: 0.50;fill: #E5E5E5;fill-opacity: 0.50;"/>
<circle cx="87.51" cy="239.39" r="3.46" style="stroke-width: 0.71;stroke: #000000;stroke-opacity: 0.50;fill: #E5E5E5;fill-opacity: 0.50;"/>
<circle cx="87.51" cy="253.69" r="3.14" style="stroke-width: 0.71;stroke: #000000;stroke-opacity: 0.50;fill: #E5E5E5;fill-opacity: 0.50;"/>
<circle cx="87.51" cy="241.23" r="3.22" style="stroke-width: 0.71;stroke: #000000;stroke-opacity: 0.50;fill: #E5E5E5;fill-opacity: 0.50;"/>
<circle cx="87.51" cy="241.35" r="3.22" style="stroke-width: 0.71;stroke: #000000;stroke-opacity: 0.50;fill: #E5E5E5;fill-opacity: 0.50;"/>
<circle cx="87.51" cy="226.43" r="3.30" style="stroke-width: 0.71;stroke: #000000;stroke-opacity: 0.50;fill: #E5E5E5;fill-opacity: 0.50;"/>
<circle cx="87.51" cy="246.59" r="3.19" style="stroke-width: 0.71;stroke: #000000;stroke-opacity: 0.50;fill: #E5E5E5;fill-opacity: 0.50;"/>
<circle cx="87.51" cy="238.15" r="2.57" style="stroke-width: 0.71;stroke: #000000;stroke-opacity: 0.50;fill: #E5E5E5;fill-opacity: 0.50;"/>
<circle cx="87.51" cy="244.35" r="2.54" style="stroke-width: 0.71;stroke: #000000;stroke-opacity: 0.50;fill: #E5E5E5;fill-opacity: 0.50;"/>
<circle cx="87.51" cy="233.74" r="2.58" style="stroke-width: 0.71;stroke: #000000;stroke-opacity: 0.50;fill: #E5E5E5;fill-opacity: 0.50;"/>
<circle cx="87.51" cy="228.58" r="2.60" style="stroke-width: 0.71;stroke: #000000;stroke-opacity: 0.50;fill: #E5E5E5;fill-opacity: 0.50;"/>
<circle cx="87.51" cy="216.74" r="2.64" style="stroke-width: 0.71;stroke: #000000;stroke-opacity: 0.50;fill: #E5E5E5;fill-opacity: 0.50;"/>
<circle cx="87.51" cy="222.78" r="2.62" style="stroke-width: 0.71;stroke: #000000;stroke-opacity: 0.50;fill: #E5E5E5;fill-opacity: 0.50;"/>
<circle cx="87.51" cy="237.53" r="3.09" style="stroke-width: 0.71;stroke: #000000;stroke-opacity: 0.50;fill: #E5E5E5;fill-opacity: 0.50;"/>
<circle cx="87.51" cy="244.59" r="3.05" style="stroke-width: 0.71;stroke: #000000;stroke-opacity: 0.50;fill: #E5E5E5;fill-opacity: 0.50;"/>
<circle cx="87.51" cy="239.29" r="3.08" style="stroke-width: 0.71;stroke: #000000;stroke-opacity: 0.50;fill: #E5E5E5;fill-opacity: 0.50;"/>
<circle cx="87.51" cy="236.41" r="3.10" style="stroke-width: 0.71;stroke: #000000;stroke-opacity: 0.50;fill: #E5E5E5;fill-opacity: 0.50;"/>
<circle cx="87.51" cy="249.81" r="3.02" style="stroke-width: 0.71;stroke: #000000;stroke-opacity: 0.50;fill: #E5E5E5;fill-opacity: 0.50;"/>
<circle cx="87.51" cy="235.04" r="3.11" style="stroke-width: 0.71;stroke: #000000;stroke-opacity: 0.50;fill: #E5E5E5;fill-opacity: 0.50;"/>
<circle cx="87.51" cy="236.25" r="2.91" style="stroke-width: 0.71;stroke: #000000;stroke-opacity: 0.50;fill: #E5E5E5;fill-opacity: 0.50;"/>
<circle cx="87.51" cy="237.63" r="2.91" style="stroke-width: 0.71;stroke: #000000;stroke-opacity: 0.50;fill: #E5E5E5;fill-opacity: 0.50;"/>
<circle cx="87.51" cy="236.79" r="2.91" style="stroke-width: 0.71;stroke: #000000;stroke-opacity: 0.50;fill: #E5E5E5;fill-opacity: 0.50;"/>
<circle cx="87.51" cy="238.48" r="2.90" style="stroke-width: 0.71;stroke: #000000;stroke-opacity: 0.50;fill: #E5E5E5;fill-opacity: 0.50;"/>
<circle cx="87.51" cy="250.68" r="2.83" style="stroke-width: 0.71;stroke: #000000;stroke-opacity: 0.50;fill: #E5E5E5;fill-opacity: 0.50;"/>
<circle cx="87.51" cy="235.18" r="2.92" style="stroke-width: 0.71;stroke: #000000;stroke-opacity: 0.50;fill: #E5E5E5;fill-opacity: 0.50;"/>
<circle cx="87.51" cy="251.61" r="2.65" style="stroke-width: 0.71;stroke: #000000;stroke-opacity: 0.50;fill: #E5E5E5;fill-opacity: 0.50;"/>
<circle cx="87.51" cy="131.54" r="2.13" style="stroke-width: 0.71;stroke: #000000;stroke-opacity: 0.50;fill: #E5E5E5;fill-opacity: 0.50;"/>
<circle cx="87.51" cy="262.18" r="3.27" style="stroke-width: 0.71;stroke: #000000;stroke-opacity: 0.50;fill: #E5E5E5;fill-opacity: 0.50;"/>
<circle cx="87.51" cy="260.81" r="3.18" style="stroke-width: 0.71;stroke: #000000;stroke-opacity: 0.50;fill: #E5E5E5;fill-opacity: 0.50;"/>
<circle cx="87.51" cy="260.26" r="4.18" style="stroke-width: 0.71;stroke: #000000;stroke-opacity: 0.50;fill: #E5E5E5;fill-opacity: 0.50;"/>
<circle cx="87.51" cy="258.75" r="4.18" style="stroke-width: 0.71;stroke: #000000;stroke-opacity: 0.50;fill: #E5E5E5;fill-opacity: 0.50;"/>
<circle cx="87.51" cy="263.15" r="4.12" style="stroke-width: 0.71;stroke: #000000;stroke-opacity: 0.50;fill: #E5E5E5;fill-opacity: 0.50;"/>
<circle cx="87.51" cy="251.68" r="4.42" style="stroke-width: 0.71;stroke: #000000;stroke-opacity: 0.50;fill: #E5E5E5;fill-opacity: 0.50;"/>
<circle cx="87.51" cy="250.30" r="3.16" style="stroke-width: 0.71;stroke: #000000;stroke-opacity: 0.50;fill: #E5E5E5;fill-opacity: 0.50;"/>
<circle cx="87.51" cy="260.37" r="3.16" style="stroke-width: 0.71;stroke: #000000;stroke-opacity: 0.50;fill: #E5E5E5;fill-opacity: 0.50;"/>
<circle cx="87.51" cy="222.68" r="2.28" style="stroke-width: 0.71;stroke: #000000;stroke-opacity: 0.50;fill: #E5E5E5;fill-opacity: 0.50;"/>
<circle cx="87.51" cy="246.77" r="2.20" style="stroke-width: 0.71;stroke: #000000;stroke-opacity: 0.50;fill: #E5E5E5;fill-opacity: 0.50;"/>
<circle cx="87.51" cy="263.34" r="3.65" style="stroke-width: 0.71;stroke: #000000;stroke-opacity: 0.50;fill: #E5E5E5;fill-opacity: 0.50;"/>
<circle cx="87.51" cy="255.51" r="3.67" style="stroke-width: 0.71;stroke: #000000;stroke-opacity: 0.50;fill: #E5E5E5;fill-opacity: 0.50;"/>
<circle cx="87.51" cy="284.71" r="3.36" style="stroke-width: 0.71;stroke: #000000;stroke-opacity: 0.50;fill: #E5E5E5;fill-opacity: 0.50;"/>
<circle cx="87.51" cy="246.24" r="3.56" style="stroke-width: 0.71;stroke: #000000;stroke-opacity: 0.50;fill: #E5E5E5;fill-opacity: 0.50;"/>
<circle cx="87.51" cy="246.20" r="3.68" style="stroke-width: 0.71;stroke: #000000;stroke-opacity: 0.50;fill: #E5E5E5;fill-opacity: 0.50;"/>
<circle cx="87.51" cy="240.52" r="3.67" style="stroke-width: 0.71;stroke: #000000;stroke-opacity: 0.50;fill: #E5E5E5;fill-opacity: 0.50;"/>
<circle cx="87.51" cy="237.29" r="3.24" style="stroke-width: 0.71;stroke: #000000;stroke-opacity: 0.50;fill: #E5E5E5;fill-opacity: 0.50;"/>
<circle cx="87.51" cy="285.49" r="3.17" style="stroke-width: 0.71;stroke: #000000;stroke-opacity: 0.50;fill: #E5E5E5;fill-opacity: 0.50;"/>
<circle cx="87.51" cy="284.94" r="2.86" style="stroke-width: 0.71;stroke: #000000;stroke-opacity: 0.50;fill: #E5E5E5;fill-opacity: 0.50;"/>
<circle cx="87.51" cy="229.98" r="2.83" style="stroke-width: 0.71;stroke: #000000;stroke-opacity: 0.50;fill: #E5E5E5;fill-opacity: 0.50;"/>
<circle cx="87.51" cy="270.69" r="2.76" style="stroke-width: 0.71;stroke: #000000;stroke-opacity: 0.50;fill: #E5E5E5;fill-opacity: 0.50;"/>
<circle cx="87.51" cy="304.22" r="2.58" style="stroke-width: 0.71;stroke: #000000;stroke-opacity: 0.50;fill: #E5E5E5;fill-opacity: 0.50;"/>
<circle cx="87.51" cy="297.32" r="2.71" style="stroke-width: 0.71;stroke: #000000;stroke-opacity: 0.50;fill: #E5E5E5;fill-opacity: 0.50;"/>
<circle cx="87.51" cy="238.97" r="2.87" style="stroke-width: 0.71;stroke: #000000;stroke-opacity: 0.50;fill: #E5E5E5;fill-opacity: 0.50;"/>
<circle cx="87.51" cy="246.00" r="3.38" style="stroke-width: 0.71;stroke: #000000;stroke-opacity: 0.50;fill: #E5E5E5;fill-opacity: 0.50;"/>
<circle cx="87.51" cy="263.94" r="3.60" style="stroke-width: 0.71;stroke: #000000;stroke-opacity: 0.50;fill: #E5E5E5;fill-opacity: 0.50;"/>
<circle cx="87.51" cy="250.04" r="3.62" style="stroke-width: 0.71;stroke: #000000;stroke-opacity: 0.50;fill: #E5E5E5;fill-opacity: 0.50;"/>
<circle cx="87.51" cy="252.17" r="3.80" style="stroke-width: 0.71;stroke: #000000;stroke-opacity: 0.50;fill: #E5E5E5;fill-opacity: 0.50;"/>
<circle cx="87.51" cy="218.97" r="2.47" style="stroke-width: 0.71;stroke: #000000;stroke-opacity: 0.50;fill: #E5E5E5;fill-opacity: 0.50;"/>
<circle cx="87.51" cy="263.46" r="2.84" style="stroke-width: 0.71;stroke: #000000;stroke-opacity: 0.50;fill: #E5E5E5;fill-opacity: 0.50;"/>
<circle cx="87.51" cy="247.48" r="3.43" style="stroke-width: 0.71;stroke: #000000;stroke-opacity: 0.50;fill: #E5E5E5;fill-opacity: 0.50;"/>
<circle cx="87.51" cy="257.73" r="3.56" style="stroke-width: 0.71;stroke: #000000;stroke-opacity: 0.50;fill: #E5E5E5;fill-opacity: 0.50;"/>
<circle cx="87.51" cy="253.59" r="4.06" style="stroke-width: 0.71;stroke: #000000;stroke-opacity: 0.50;fill: #E5E5E5;fill-opacity: 0.50;"/>
<circle cx="87.51" cy="258.37" r="4.13" style="stroke-width: 0.71;stroke: #000000;stroke-opacity: 0.50;fill: #E5E5E5;fill-opacity: 0.50;"/>
<circle cx="87.51" cy="235.62" r="2.95" style="stroke-width: 0.71;stroke: #000000;stroke-opacity: 0.50;fill: #E5E5E5;fill-opacity: 0.50;"/>
<circle cx="87.51" cy="259.54" r="3.11" style="stroke-width: 0.71;stroke: #000000;stroke-opacity: 0.50;fill: #E5E5E5;fill-opacity: 0.50;"/>
<circle cx="87.51" cy="239.43" r="3.18" style="stroke-width: 0.71;stroke: #000000;stroke-opacity: 0.50;fill: #E5E5E5;fill-opacity: 0.50;"/>
<circle cx="87.51" cy="256.83" r="2.02" style="stroke-width: 0.71;stroke: #000000;stroke-opacity: 0.50;fill: #E5E5E5;fill-opacity: 0.50;"/>
<circle cx="87.51" cy="229.85" r="2.02" style="stroke-width: 0.71;stroke: #000000;stroke-opacity: 0.50;fill: #E5E5E5;fill-opacity: 0.50;"/>
<circle cx="87.51" cy="219.36" r="1.99" style="stroke-width: 0.71;stroke: #000000;stroke-opacity: 0.50;fill: #E5E5E5;fill-opacity: 0.50;"/>
<circle cx="87.51" cy="245.63" r="2.01" style="stroke-width: 0.71;stroke: #000000;stroke-opacity: 0.50;fill: #E5E5E5;fill-opacity: 0.50;"/>
<circle cx="87.51" cy="174.44" r="1.96" style="stroke-width: 0.71;stroke: #000000;stroke-opacity: 0.50;fill: #E5E5E5;fill-opacity: 0.50;"/>
<circle cx="87.51" cy="243.33" r="2.01" style="stroke-width: 0.71;stroke: #000000;stroke-opacity: 0.50;fill: #E5E5E5;fill-opacity: 0.50;"/>
<circle cx="87.51" cy="252.09" r="2.03" style="stroke-width: 0.71;stroke: #000000;stroke-opacity: 0.50;fill: #E5E5E5;fill-opacity: 0.50;"/>
<circle cx="87.51" cy="223.40" r="2.05" style="stroke-width: 0.71;stroke: #000000;stroke-opacity: 0.50;fill: #E5E5E5;fill-opacity: 0.50;"/>
<circle cx="87.51" cy="220.08" r="2.05" style="stroke-width: 0.71;stroke: #000000;stroke-opacity: 0.50;fill: #E5E5E5;fill-opacity: 0.50;"/>
<circle cx="87.51" cy="249.66" r="2.00" style="stroke-width: 0.71;stroke: #000000;stroke-opacity: 0.50;fill: #E5E5E5;fill-opacity: 0.50;"/>
<circle cx="87.51" cy="234.20" r="2.05" style="stroke-width: 0.71;stroke: #000000;stroke-opacity: 0.50;fill: #E5E5E5;fill-opacity: 0.50;"/>
<circle cx="87.51" cy="247.77" r="2.02" style="stroke-width: 0.71;stroke: #000000;stroke-opacity: 0.50;fill: #E5E5E5;fill-opacity: 0.50;"/>
<circle cx="87.51" cy="201.14" r="2.56" style="stroke-width: 0.71;stroke: #000000;stroke-opacity: 0.50;fill: #E5E5E5;fill-opacity: 0.50;"/>
<circle cx="87.51" cy="235.58" r="3.29" style="stroke-width: 0.71;stroke: #000000;stroke-opacity: 0.50;fill: #E5E5E5;fill-opacity: 0.50;"/>
<circle cx="87.51" cy="235.18" r="3.16" style="stroke-width: 0.71;stroke: #000000;stroke-opacity: 0.50;fill: #E5E5E5;fill-opacity: 0.50;"/>
<circle cx="87.51" cy="232.04" r="2.65" style="stroke-width: 0.71;stroke: #000000;stroke-opacity: 0.50;fill: #E5E5E5;fill-opacity: 0.50;"/>
<circle cx="87.51" cy="248.86" r="2.87" style="stroke-width: 0.71;stroke: #000000;stroke-opacity: 0.50;fill: #E5E5E5;fill-opacity: 0.50;"/>
<circle cx="87.51" cy="246.09" r="2.96" style="stroke-width: 0.71;stroke: #000000;stroke-opacity: 0.50;fill: #E5E5E5;fill-opacity: 0.50;"/>
<circle cx="87.51" cy="228.59" r="2.88" style="stroke-width: 0.71;stroke: #000000;stroke-opacity: 0.50;fill: #E5E5E5;fill-opacity: 0.50;"/>
<circle cx="87.51" cy="213.09" r="2.70" style="stroke-width: 0.71;stroke: #000000;stroke-opacity: 0.50;fill: #E5E5E5;fill-opacity: 0.50;"/>
<circle cx="87.51" cy="241.12" r="2.91" style="stroke-width: 0.71;stroke: #000000;stroke-opacity: 0.50;fill: #E5E5E5;fill-opacity: 0.50;"/>
<circle cx="87.51" cy="242.61" r="2.98" style="stroke-width: 0.71;stroke: #000000;stroke-opacity: 0.50;fill: #E5E5E5;fill-opacity: 0.50;"/>
<circle cx="87.51" cy="247.03" r="3.02" style="stroke-width: 0.71;stroke: #000000;stroke-opacity: 0.50;fill: #E5E5E5;fill-opacity: 0.50;"/>
<circle cx="87.51" cy="254.23" r="2.97" style="stroke-width: 0.71;stroke: #000000;stroke-opacity: 0.50;fill: #E5E5E5;fill-opacity: 0.50;"/>
<circle cx="87.51" cy="266.69" r="2.94" style="stroke-width: 0.71;stroke: #000000;stroke-opacity: 0.50;fill: #E5E5E5;fill-opacity: 0.50;"/>
<circle cx="87.51" cy="253.82" r="2.91" style="stroke-width: 0.71;stroke: #000000;stroke-opacity: 0.50;fill: #E5E5E5;fill-opacity: 0.50;"/>
<circle cx="87.51" cy="261.96" r="3.04" style="stroke-width: 0.71;stroke: #000000;stroke-opacity: 0.50;fill: #E5E5E5;fill-opacity: 0.50;"/>
<circle cx="415.35" cy="286.62" r="3.05" style="stroke-width: 0.71;stroke: #000000;stroke-opacity: 0.50;fill: #E5E5E5;fill-opacity: 0.50;"/>
<circle cx="415.35" cy="281.32" r="3.16" style="stroke-width: 0.71;stroke: #000000;stroke-opacity: 0.50;fill: #E5E5E5;fill-opacity: 0.50;"/>
<circle cx="415.35" cy="288.49" r="2.97" style="stroke-width: 0.71;stroke: #000000;stroke-opacity: 0.50;fill: #E5E5E5;fill-opacity: 0.50;"/>
<circle cx="87.51" cy="257.55" r="3.74" style="stroke-width: 0.71;stroke: #000000;stroke-opacity: 0.50;fill: #E5E5E5;fill-opacity: 0.50;"/>
<circle cx="87.51" cy="258.48" r="3.73" style="stroke-width: 0.71;stroke: #000000;stroke-opacity: 0.50;fill: #E5E5E5;fill-opacity: 0.50;"/>
<circle cx="87.51" cy="262.40" r="3.68" style="stroke-width: 0.71;stroke: #000000;stroke-opacity: 0.50;fill: #E5E5E5;fill-opacity: 0.50;"/>
<circle cx="87.51" cy="264.50" r="3.66" style="stroke-width: 0.71;stroke: #000000;stroke-opacity: 0.50;fill: #E5E5E5;fill-opacity: 0.50;"/>
<circle cx="123.94" cy="275.34" r="3.71" style="stroke-width: 0.71;stroke: #000000;stroke-opacity: 0.50;fill: #E5E5E5;fill-opacity: 0.50;"/>
<circle cx="123.94" cy="263.93" r="3.87" style="stroke-width: 0.71;stroke: #000000;stroke-opacity: 0.50;fill: #E5E5E5;fill-opacity: 0.50;"/>
<circle cx="160.36" cy="258.25" r="2.84" style="stroke-width: 0.71;stroke: #000000;stroke-opacity: 0.50;fill: #E5E5E5;fill-opacity: 0.50;"/>
<circle cx="160.36" cy="263.96" r="2.88" style="stroke-width: 0.71;stroke: #000000;stroke-opacity: 0.50;fill: #E5E5E5;fill-opacity: 0.50;"/>
<circle cx="160.36" cy="293.46" r="2.53" style="stroke-width: 0.71;stroke: #000000;stroke-opacity: 0.50;fill: #E5E5E5;fill-opacity: 0.50;"/>
<circle cx="160.36" cy="224.88" r="3.12" style="stroke-width: 0.71;stroke: #000000;stroke-opacity: 0.50;fill: #E5E5E5;fill-opacity: 0.50;"/>
<circle cx="160.36" cy="268.72" r="3.09" style="stroke-width: 0.71;stroke: #000000;stroke-opacity: 0.50;fill: #E5E5E5;fill-opacity: 0.50;"/>
<circle cx="160.36" cy="230.38" r="2.91" style="stroke-width: 0.71;stroke: #000000;stroke-opacity: 0.50;fill: #E5E5E5;fill-opacity: 0.50;"/>
<circle cx="87.51" cy="228.13" r="2.76" style="stroke-width: 0.71;stroke: #000000;stroke-opacity: 0.50;fill: #E5E5E5;fill-opacity: 0.50;"/>
<circle cx="87.51" cy="246.60" r="2.56" style="stroke-width: 0.71;stroke: #000000;stroke-opacity: 0.50;fill: #E5E5E5;fill-opacity: 0.50;"/>
<circle cx="87.51" cy="242.52" r="2.70" style="stroke-width: 0.71;stroke: #000000;stroke-opacity: 0.50;fill: #E5E5E5;fill-opacity: 0.50;"/>
<circle cx="342.49" cy="249.96" r="3.06" style="stroke-width: 0.71;stroke: #000000;stroke-opacity: 0.50;fill: #E5E5E5;fill-opacity: 0.50;"/>
<circle cx="342.49" cy="267.53" r="3.17" style="stroke-width: 0.71;stroke: #000000;stroke-opacity: 0.50;fill: #E5E5E5;fill-opacity: 0.50;"/>
<polyline points="51.08,306.89 55.70,307.29 60.31,307.70 64.92,308.10 69.53,308.51 74.14,308.92 78.75,309.34 83.36,309.75 87.97,310.17 92.58,310.60 97.19,311.02 101.80,311.45 106.42,311.88 111.03,312.31 115.64,312.74 120.25,313.18 124.86,313.62 129.47,314.06 134.08,314.51 138.69,314.96 143.30,315.41 147.91,315.86 152.52,316.31 157.14,316.77 161.75,317.23 166.36,317.70 170.97,318.16 175.58,318.63 180.19,319.10 184.80,319.58 189.41,320.05 194.02,320.53 198.63,321.01 203.25,321.50 207.86,321.98 212.47,322.47 217.08,322.96 221.69,323.46 226.30,323.96 230.91,324.45 235.52,324.96 240.13,325.46 244.74,325.97 249.35,326.48 253.97,326.99 258.58,327.50 263.19,328.02 267.80,328.54 272.41,329.06 277.02,329.58 281.63,330.11 286.24,330.64 290.85,331.17 295.46,331.70 300.07,332.24 304.69,332.78 309.30,333.32 313.91,333.86 318.52,334.40 323.13,334.95 327.74,335.50 332.35,336.05 336.96,336.61 341.57,337.16 346.18,337.72 350.79,338.28 355.41,338.85 360.02,339.41 364.63,339.98 369.24,340.55 373.85,341.12 378.46,341.70 383.07,342.28 387.68,342.85 392.29,343.44 396.90,344.02 401.51,344.61 406.13,345.20 410.74,345.79 415.35,346.38" style="stroke-width: 1.07; stroke-dasharray: 1.42, 4.27;stroke-linecap: butt;"/>
<polyline points="51.08,176.68 55.70,177.14 60.31,177.59 64.92,178.04 69.53,178.49 74.14,178.94 78.75,179.38 83.36,179.82 87.97,180.26 92.58,180.70 97.19,181.13 101.80,181.56 106.42,181.99 111.03,182.41 115.64,182.84 120.25,183.26 124.86,183.68 129.47,184.09 134.08,184.50 138.69,184.91 143.30,185.32 147.91,185.72 152.52,186.13 157.14,186.53 161.75,186.92 166.36,187.32 170.97,187.71 175.58,188.10 180.19,188.49 184.80,188.87 189.41,189.25 194.02,189.63 198.63,190.01 203.25,190.38 207.86,190.75 212.47,191.12 217.08,191.48 221.69,191.85 226.30,192.21 230.91,192.57 235.52,192.92 240.13,193.28 244.74,193.63 249.35,193.98 253.97,194.32 258.58,194.66 263.19,195.01 267.80,195.34 272.41,195.68 277.02,196.01 281.63,196.35 286.24,196.67 290.85,197.00 295.46,197.33 300.07,197.65 304.69,197.97 309.30,198.28 313.91,198.60 318.52,198.91 323.13,199.22 327.74,199.53 332.35,199.84 336.96,200.14 341.57,200.44 346.18,200.74 350.79,201.04 355.41,201.33 360.02,201.62 364.63,201.91 369.24,202.20 373.85,202.49 378.46,202.77 383.07,203.05 387.68,203.33 392.29,203.60 396.90,203.88 401.51,204.15 406.13,204.42 410.74,204.68 415.35,204.95" style="stroke-width: 1.07; stroke-dasharray: 1.42, 4.27;stroke-linecap: butt;"/>
<polyline points="51.08,250.44 55.70,250.74 60.31,251.05 64.92,251.38 69.53,251.72 74.14,252.07 78.75,252.44 83.36,252.82 87.97,253.21 92.58,253.62 97.19,254.05 101.80,254.49 106.42,254.95 111.03,255.42 115.64,255.90 120.25,256.40 124.86,256.91 129.47,257.43 134.08,257.97 138.69,258.52 143.30,259.08 147.91,259.67 152.52,260.27 157.14,260.89 161.75,261.52 166.36,262.17 170.97,262.83 175.58,263.50 180.19,264.18 184.80,264.86 189.41,265.55 194.02,266.26 198.63,266.99 203.25,267.73 207.86,268.49 212.47,269.25 217.08,270.01 221.69,270.78 226.30,271.55 230.91,272.31 235.52,273.07 240.13,273.84 244.74,274.62 249.35,275.41 253.97,276.20 258.58,277.00 263.19,277.79 267.80,278.59 272.41,279.39 277.02,280.19 281.63,280.98 286.24,281.78 290.85,282.58 295.46,283.38 300.07,284.19 304.69,284.99 309.30,285.80 313.91,286.61 318.52,287.42 323.13,288.23 327.74,289.04 332.35,289.85 336.96,290.67 341.57,291.49 346.18,292.30 350.79,293.12 355.41,293.94 360.02,294.77 364.63,295.59 369.24,296.42 373.85,297.24 378.46,298.07 383.07,298.90 387.68,299.73 392.29,300.56 396.90,301.39 401.51,302.23 406.13,303.07 410.74,303.90 415.35,304.74" style="stroke-width: 1.07; stroke-dasharray: 5.69, 5.69;stroke-linecap: butt;"/>
<polyline points="51.08,233.13 55.70,233.69 60.31,234.24 64.92,234.77 69.53,235.29 74.14,235.79 78.75,236.28 83.36,236.76 87.97,237.22 92.58,237.67 97.19,238.10 101.80,238.52 106.42,238.92 111.03,239.31 115.64,239.68 120.25,240.04 124.86,240.39 129.47,240.72 134.08,241.04 138.69,241.35 143.30,241.65 147.91,241.92 152.52,242.17 157.14,242.41 161.75,242.63 166.36,242.84 170.97,243.04 175.58,243.23 180.19,243.41 184.80,243.58 189.41,243.75 194.02,243.90 198.63,244.03 203.25,244.14 207.86,244.25 212.47,244.34 217.08,244.43 221.69,244.52 226.30,244.61 230.91,244.71 235.52,244.81 240.13,244.89 244.74,244.97 249.35,245.04 253.97,245.11 258.58,245.17 263.19,245.23 267.80,245.29 272.41,245.35 277.02,245.41 281.63,245.47 286.24,245.53 290.85,245.59 295.46,245.65 300.07,245.70 304.69,245.75 309.30,245.80 313.91,245.85 318.52,245.89 323.13,245.94 327.74,245.99 332.35,246.03 336.96,246.08 341.57,246.12 346.18,246.16 350.79,246.20 355.41,246.23 360.02,246.27 364.63,246.30 369.24,246.34 373.85,246.37 378.46,246.40 383.07,246.43 387.68,246.45 392.29,246.48 396.90,246.50 401.51,246.53 406.13,246.55 410.74,246.57 415.35,246.58" style="stroke-width: 1.07; stroke-dasharray: 5.69, 5.69;stroke-linecap: butt;"/>
<polyline points="51.08,241.79 55.70,242.22 60.31,242.64 64.92,243.07 69.53,243.50 74.14,243.93 78.75,244.36 83.36,244.79 87.97,245.22 92.58,245.65 97.19,246.07 101.80,246.50 106.42,246.93 111.03,247.36 115.64,247.79 120.25,248.22 124.86,248.65 129.47,249.08 134.08,249.51 138.69,249.93 143.30,250.36 147.91,250.79 152.52,251.22 157.14,251.65 161.75,252.08 166.36,252.51 170.97,252.94 175.58,253.36 180.19,253.79 184.80,254.22 189.41,254.65 194.02,255.08 198.63,255.51 203.25,255.94 207.86,256.37 212.47,256.80 217.08,257.22 221.69,257.65 226.30,258.08 230.91,258.51 235.52,258.94 240.13,259.37 244.74,259.80 249.35,260.23 253.97,260.65 258.58,261.08 263.19,261.51 267.80,261.94 272.41,262.37 277.02,262.80 281.63,263.23 286.24,263.66 290.85,264.09 295.46,264.51 300.07,264.94 304.69,265.37 309.30,265.80 313.91,266.23 318.52,266.66 323.13,267.09 327.74,267.52 332.35,267.94 336.96,268.37 341.57,268.80 346.18,269.23 350.79,269.66 355.41,270.09 360.02,270.52 364.63,270.95 369.24,271.38 373.85,271.80 378.46,272.23 383.07,272.66 387.68,273.09 392.29,273.52 396.90,273.95 401.51,274.38 406.13,274.81 410.74,275.23 415.35,275.66" style="stroke-width: 2.13;stroke-linecap: butt;"/>
<g><text x="361.03" y="25.57" style="font-family: Arial;font-size: 11.04px;font-style: italic;" textLength="5.52px" lengthAdjust="spacingAndGlyphs">k</text></g>
<g><text x="370.29" y="25.57" style="font-family: Symbol;font-size: 11.04px;" textLength="6.06px" lengthAdjust="spacingAndGlyphs">=</text></g>
<g><text x="378.89" y="25.57" style="font-family: Arial;font-size: 11.04px;" textLength="18.40px" lengthAdjust="spacingAndGlyphs">263</text></g>
<rect x="32.87" y="5.48" width="400.69" height="392.23" style="stroke-width: 1.07;stroke: #333333;"/>
</g><g clip-path="url(#c2)">
<g><text transform="translate(26.83,370.99) rotate(-90.00)" text-anchor="middle" style="font-family: Arial;font-size: 10.00px;" textLength="8.89px" lengthAdjust="spacingAndGlyphs">-2</text></g>
<g><text transform="translate(26.83,258.25) rotate(-90.00)" text-anchor="middle" style="font-family: Arial;font-size: 10.00px;" textLength="5.56px" lengthAdjust="spacingAndGlyphs">0</text></g>
<g><text transform="translate(26.83,145.51) rotate(-90.00)" text-anchor="middle" style="font-family: Arial;font-size: 10.00px;" textLength="5.56px" lengthAdjust="spacingAndGlyphs">2</text></g>
<g><text transform="translate(26.83,32.77) rotate(-90.00)" text-anchor="middle" style="font-family: Arial;font-size: 10.00px;" textLength="5.56px" lengthAdjust="spacingAndGlyphs">4</text></g>
<polyline points="30.13,370.99 32.87,370.99" style="stroke-width: 1.07;stroke: #333333;stroke-linecap: butt;"/>
<polyline points="30.13,258.25 32.87,258.25" style="stroke-width: 1.07;stroke: #333333;stroke-linecap: butt;"/>
<polyline points="30.13,145.51 32.87,145.51" style="stroke-width: 1.07;stroke: #333333;stroke-linecap: butt;"/>
<polyline points="30.13,32.77 32.87,32.77" style="stroke-width: 1.07;stroke: #333333;stroke-linecap: butt;"/>
<polyline points="123.94,400.45 123.94,397.71" style="stroke-width: 1.07;stroke: #333333;stroke-linecap: butt;"/>
<polyline points="233.22,400.45 233.22,397.71" style="stroke-width: 1.07;stroke: #333333;stroke-linecap: butt;"/>
<polyline points="342.49,400.45 342.49,397.71" style="stroke-width: 1.07;stroke: #333333;stroke-linecap: butt;"/>
<g><text x="123.94" y="408.94" text-anchor="middle" style="font-family: Arial;font-size: 8.80px;fill: #4D4D4D;" textLength="4.90px" lengthAdjust="spacingAndGlyphs">3</text></g>
<g><text x="233.22" y="408.94" text-anchor="middle" style="font-family: Arial;font-size: 8.80px;fill: #4D4D4D;" textLength="4.90px" lengthAdjust="spacingAndGlyphs">6</text></g>
<g><text x="342.49" y="408.94" text-anchor="middle" style="font-family: Arial;font-size: 8.80px;fill: #4D4D4D;" textLength="4.90px" lengthAdjust="spacingAndGlyphs">9</text></g>
<g><text x="233.22" y="421.53" text-anchor="middle" style="font-family: Arial;font-size: 11.00px;" textLength="94.16px" lengthAdjust="spacingAndGlyphs">Number of patterns</text></g>
<g><text transform="translate(13.37,201.59) rotate(-90.00)" text-anchor="middle" style="font-family: Arial;font-size: 11.00px;" textLength="50.73px" lengthAdjust="spacingAndGlyphs">Effect size</text></g>
<g><text x="38.35" y="23.54" style="font-family: Arial;font-size: 11.00px;" textLength="79.47px" lengthAdjust="spacingAndGlyphs">Precision (1/SE)</text></g>
<rect x="123.30" y="10.96" width="17.28" height="17.28" style="stroke-width: 1.07;stroke: none;fill: #FFFFFF;"/>
<circle cx="131.94" cy="19.60" r="4.32" style="stroke-width: 0.71;stroke: #000000;stroke-opacity: 0.50;fill: #E5E5E5;fill-opacity: 0.50;"/>
<rect x="161.33" y="10.96" width="17.28" height="17.28" style="stroke-width: 1.07;stroke: none;fill: #FFFFFF;"/>
<circle cx="169.97" cy="19.60" r="5.57" style="stroke-width: 0.71;stroke: #000000;stroke-opacity: 0.50;fill: #E5E5E5;fill-opacity: 0.50;"/>
<rect x="199.37" y="10.96" width="17.28" height="17.28" style="stroke-width: 1.07;stroke: none;fill: #FFFFFF;"/>
<circle cx="208.01" cy="19.60" r="6.52" style="stroke-width: 0.71;stroke: #000000;stroke-opacity: 0.50;fill: #E5E5E5;fill-opacity: 0.50;"/>
<g><text x="146.06" y="22.75" style="font-family: Arial;font-size: 8.80px;" textLength="9.79px" lengthAdjust="spacingAndGlyphs">20</text></g>
<g><text x="184.09" y="22.75" style="font-family: Arial;font-size: 8.80px;" textLength="9.79px" lengthAdjust="spacingAndGlyphs">40</text></g>
<g><text x="222.13" y="22.75" style="font-family: Arial;font-size: 8.80px;" textLength="9.79px" lengthAdjust="spacingAndGlyphs">60</text></g>
</g>
</svg>